<svg xmlns="http://www.w3.org/2000/svg" xmlns:xlink="http://www.w3.org/1999/xlink" width="51" height="49" viewBox="0 0 51 49">
    <defs>
        <path id="a" d="M0 48.918h51V0H0z"/>
    </defs>
    <g fill="none" fill-rule="evenodd">
        <mask id="b" fill="#fff">
            <use xlink:href="#a"/>
        </mask>
        <path fill="#0A0B09" d="M26.02 13.066a2.549 2.549 0 0 1 2.546 2.546 2.549 2.549 0 0 1-2.546 2.546 2.549 2.549 0 0 1-2.545-2.546 2.549 2.549 0 0 1 2.545-2.546zm0 6.71a4.168 4.168 0 0 0 4.164-4.164 4.168 4.168 0 0 0-4.164-4.163 4.168 4.168 0 0 0-4.163 4.163 4.168 4.168 0 0 0 4.163 4.164z" mask="url(#b)"/>
        <path fill="#0A0B09" d="M32.985 35.814a1.24 1.24 0 0 1-1.246 1.233h-4.905v-3.53h6.15v2.297zM26.02 47.248c-2.172-.908-3.612-3.038-3.612-5.39 0-1.131.324-2.216.94-3.16h1.859v1.488a.81.81 0 0 0 .813.805.81.81 0 0 0 .814-.805v-1.488h1.858c.617.944.94 2.029.94 3.16 0 2.352-1.44 4.482-3.612 5.39zm-6.964-11.434v-2.297h6.15v3.53h-4.903a1.24 1.24 0 0 1-1.247-1.233zm-8.061-1.643v-10.75l6.434-6.326v17.077h-6.434zm8.061-21.045c0-4.837 2.658-9.176 6.964-11.418 4.307 2.242 6.965 6.581 6.965 11.418V25.01a.81.81 0 0 0 .813.805.81.81 0 0 0 .814-.805v-7.914l6.434 6.326v10.75h-6.434v-6.424a.81.81 0 0 0-.814-.806.81.81 0 0 0-.813.806v4.16h-6.15v-2.14a.81.81 0 0 0-.815-.805.81.81 0 0 0-.813.806v2.138h-6.15v-18.78zM41.86 35.782a.81.81 0 0 0 .813-.805v-11.89a.801.801 0 0 0-.24-.572l-7.82-7.69v-1.699c0-2.77-.792-5.463-2.29-7.788A14.656 14.656 0 0 0 26.378.082a.82.82 0 0 0-.715 0 14.655 14.655 0 0 0-5.945 5.256 14.351 14.351 0 0 0-2.29 7.788v1.698l-7.82 7.69a.8.8 0 0 0-.24.572v11.89a.81.81 0 0 0 .813.806h7.248v.032c0 1.568 1.289 2.844 2.874 2.844h1.208a7.327 7.327 0 0 0-.73 3.2c0 3.126 1.994 5.944 4.961 7.012a.822.822 0 0 0 .557 0c2.967-1.068 4.961-3.886 4.961-7.011 0-1.123-.25-2.208-.73-3.201h1.209c1.584 0 2.873-1.276 2.873-2.844v-.032h7.248z" mask="url(#b)"/>
        <path fill="#0A0B09" d="M44.065 40.421c-.922 0-1.832.177-2.675.515-.46-1.404-1.828-2.426-3.439-2.426-1.987 0-3.604 1.555-3.604 3.465 0 .436.367.79.821.79.454 0 .821-.354.821-.79 0-1.04.88-1.886 1.962-1.886 1.082 0 1.962.846 1.962 1.886 0 .446-.164.878-.463 1.218a.768.768 0 0 0 .096 1.112.838.838 0 0 0 .53.187.833.833 0 0 0 .628-.28 3.41 3.41 0 0 0 .783-1.567A5.459 5.459 0 0 1 44.065 42c2.918 0 5.293 2.283 5.293 5.088 0 .436.367.79.82.79.454 0 .822-.354.822-.79 0-3.676-3.111-6.667-6.935-6.667M15.647 43.056c-.327 0-.645.039-.95.11a.777.777 0 0 0 .066-.666c-.634-1.764-2.349-2.949-4.268-2.949a4.57 4.57 0 0 0-3.603 1.746 5.654 5.654 0 0 0-1.41-.178C2.458 41.12 0 43.516 0 46.462c0 .44.366.797.817.797a.807.807 0 0 0 .817-.797c0-2.068 1.726-3.75 3.847-3.75 1.331 0 2.55.657 3.26 1.757a.83.83 0 0 0 1.126.25.785.785 0 0 0 .256-1.099 5.423 5.423 0 0 0-1.67-1.65 2.933 2.933 0 0 1 2.042-.826c1.226 0 2.321.756 2.725 1.882.087.242.281.416.512.492-1.314.674-2.213 2.018-2.213 3.563 0 .44.366.797.817.797a.807.807 0 0 0 .817-.797c0-1.34 1.119-2.431 2.494-2.431 1.376 0 2.494 1.09 2.494 2.431 0 .44.366.797.818.797a.807.807 0 0 0 .817-.797c0-2.22-1.853-4.025-4.129-4.025" mask="url(#b)"/>
    </g>
</svg>
