<svg xmlns="http://www.w3.org/2000/svg" width="30" height="33" viewBox="0 0 30 33">
    <g fill="#FFF" fill-rule="evenodd">
        <path d="M29.346 8.857L21.366.373a.596.596 0 0 0-.433-.189H9.039c-1.33 0-2.413 1.108-2.413 2.47v8.624h-4.82C.81 11.278 0 12.107 0 13.126v9.248c0 1.019.81 1.847 1.806 1.847h4.82v5.548c0 1.36 1.083 2.465 2.413 2.465h18.062c1.33 0 2.414-1.105 2.414-2.463V9.285c0-.16-.06-.313-.169-.428zm-8.264-7.009l6.55 6.965h-6.55V1.848zM1.806 22.988a.609.609 0 0 1-.601-.614v-9.248c0-.34.27-.615.601-.615h16.265c.332 0 .601.276.601.615v9.248c0 .339-.27.615-.6.615H1.805zm26.504 6.783c0 .678-.543 1.23-1.21 1.23H9.04c-.667 0-1.21-.552-1.21-1.232v-5.548h10.241c.996 0 1.806-.828 1.806-1.847v-9.248c0-1.02-.81-1.848-1.806-1.848H7.831V2.653c0-.682.542-1.236 1.208-1.236h10.838v8.012c0 .34.27.617.603.617h7.83V29.77z"/>
        <path d="M6.697 16.564a1.372 1.372 0 0 0-.751-.489C5.75 16.025 5.333 16 4.692 16H3v5h1.054v-1.886h.688c.477 0 .841-.024 1.093-.072.186-.038.368-.117.547-.237.18-.12.327-.283.443-.492.117-.21.175-.468.175-.775 0-.398-.101-.722-.303-.974zm-.903 1.377a.69.69 0 0 1-.33.245c-.14.053-.417.079-.833.079h-.577v-1.42h.51c.38 0 .632.012.758.035a.74.74 0 0 1 .424.222.63.63 0 0 1 .168.45c0 .148-.04.277-.12.389zM12.844 17.366a2.21 2.21 0 0 0-.456-.81c-.2-.22-.44-.374-.72-.46-.207-.064-.51-.096-.907-.096H9v5h1.813c.356 0 .64-.035.853-.106.284-.095.51-.228.676-.399.222-.225.392-.52.511-.883.098-.298.147-.653.147-1.064 0-.469-.052-.862-.156-1.182zm-.938 2.053c-.065.224-.149.385-.252.483a.874.874 0 0 1-.389.208c-.12.032-.313.048-.582.048h-.72v-3.312h.433c.393 0 .657.016.791.048a.9.9 0 0 1 .446.235c.117.116.208.277.273.484.065.207.098.504.098.89 0 .387-.033.692-.098.916zM17 16.846V16h-3v5h.884v-2.125h1.826v-.846h-1.826v-1.183z"/>
    </g>
</svg>
